<svg width="103" height="40" viewBox="0 0 103 40" fill="none" xmlns="http://www.w3.org/2000/svg">
<path d="M32 0.25H8C3.71979 0.25 0.25 3.71979 0.25 8V32C0.25 36.2802 3.71979 39.75 8 39.75H32C36.2802 39.75 39.75 36.2802 39.75 32V8C39.75 3.71979 36.2802 0.25 32 0.25Z" fill="white"/>
<path d="M32 0.25H8C3.71979 0.25 0.25 3.71979 0.25 8V32C0.25 36.2802 3.71979 39.75 8 39.75H32C36.2802 39.75 39.75 36.2802 39.75 32V8C39.75 3.71979 36.2802 0.25 32 0.25Z" stroke="#E7EAF0" stroke-width="0.5"/>
<path d="M20 36C28.837 36 36 28.837 36 20C36 11.164 28.837 4 20 4C11.164 4 4 11.164 4 20C4 28.837 11.164 36 20 36Z" fill="#4785FF"/>
<path d="M20 33C27.18 33 33 27.18 33 20C33 12.82 27.18 7 20 7C12.82 7 7 12.82 7 20C7 27.18 12.82 33 20 33Z" fill="#ADC9FF"/>
<path d="M20 30C25.523 30 30 25.523 30 20C30 14.477 25.523 10 20 10C14.477 10 10 14.477 10 20C10 25.523 14.477 30 20 30Z" fill="white"/>
<path d="M58.416 30.448C53.012 30.448 49.204 26.584 49.204 20.088C49.204 13.704 52.872 9.672 58.472 9.672C63.54 9.672 66.256 12.332 67.096 16.84L63.288 17.036C62.812 14.432 61.216 12.836 58.472 12.836C55.084 12.836 52.984 15.664 52.984 20.088C52.984 24.568 55.14 27.284 58.444 27.284C61.384 27.284 62.952 25.576 63.4 22.72L67.208 22.916C66.424 27.592 63.456 30.448 58.416 30.448ZM74.646 30.336C71.509 30.336 69.437 28.852 69.437 26.248C69.437 23.672 71.033 22.3 74.309 21.656L79.265 20.676C79.265 18.576 78.285 17.484 76.409 17.484C74.645 17.484 73.693 18.296 73.357 19.808L69.689 19.64C70.277 16.504 72.685 14.712 76.409 14.712C80.665 14.712 82.849 16.952 82.849 20.928V26.36C82.849 27.172 83.129 27.396 83.689 27.396H84.165V30C83.941 30.056 83.353 30.112 82.877 30.112C81.253 30.112 80.049 29.524 79.741 27.676C79.013 29.272 77.109 30.336 74.645 30.336H74.646ZM75.373 27.732C77.753 27.732 79.265 26.22 79.265 23.952V23.112L75.401 23.896C73.805 24.204 73.161 24.876 73.161 25.912C73.161 27.088 73.945 27.732 75.373 27.732ZM86.874 34.2V15.048H90.318L90.374 17.26C91.242 15.608 92.894 14.712 94.854 14.712C99.11 14.712 101.21 18.212 101.21 22.524C101.21 26.836 99.082 30.336 94.826 30.336C92.922 30.336 91.27 29.412 90.458 27.956V34.2H86.874ZM93.986 27.424C96.17 27.424 97.486 25.604 97.486 22.524C97.486 19.444 96.17 17.624 93.986 17.624C91.802 17.624 90.458 19.276 90.458 22.524C90.458 25.772 91.774 27.424 93.986 27.424Z" fill="white"/>
</svg>
